# File created by Blade
# Date/Time:  Wed Apr 08 17:35:25 2015
# Frame Rate: 120.000 fps
#------------------------------------------------------
:FULLY-SPECIFIED
:DEGREES
1813
root 8.448927 38.286315 4.832489 155.303867 -53.854693 -120.092955
Spine -16.761849 -1.512590 17.720801
Head 24.408881 -43.868017 19.344081
LeftShoulder -6.088506 19.382033 19.242356
LeftArm 22.006300 28.234327 -73.528685
LeftForeArm 19.158513 -0.000000 26.052128
LeftHand -13.759771 -0.000000 -10.961815
LeftHandThumb1 -26.253704 0.000000 33.147579
RightShoulder -41.454910 -47.475151 25.771064
RightArm 48.107986 -16.460129 51.915382
RightForeArm 7.549775 0.000000 11.026610
RightHand -2.391064 -0.000000 24.575116
RightHandThumb1 -24.326973 -0.000000 -32.862282
LeftUpLeg -40.879234 35.472235 2.334003
LeftLeg 12.943357 -0.000000 -0.000000
LeftFoot -10.638778 18.154557 -3.375521
LeftToeBase 5.096286 -0.000000 -0.000000
RightUpLeg -99.186390 -23.835252 20.068145
RightLeg 132.139101 -0.000000 -0.000000
RightFoot 35.181541 -3.144804 24.918528
RightToeBase -9.124378 -0.000000 0.000000
1814
root 8.468840 38.298408 4.843805 155.863623 -53.816339 -120.092995
Spine -17.313548 -1.356029 17.783282
Head 24.552345 -43.869723 19.292906
LeftShoulder -6.076693 19.468877 19.300766
LeftArm 22.061574 28.232119 -73.588758
LeftForeArm 19.026156 -0.000000 26.305620
LeftHand -13.679898 -0.000000 -10.989171
LeftHandThumb1 -26.253704 0.000000 33.147579
RightShoulder -41.638672 -47.547491 25.924504
RightArm 48.093300 -16.440937 51.969605
RightForeArm 7.919121 -0.000000 11.043616
RightHand -2.125042 -0.000000 24.202273
RightHandThumb1 -24.326973 -0.000000 -32.862282
LeftUpLeg -41.513272 35.309160 2.068883
LeftLeg 12.896865 -0.000000 -0.000000
LeftFoot -10.396974 18.509001 -3.095609
LeftToeBase 4.963263 -0.000000 -0.000000
RightUpLeg -100.558182 -23.515203 21.794655
RightLeg 131.854528 -0.000000 -0.000000
RightFoot 34.138239 -4.060989 24.770168
RightToeBase -9.182073 -0.000000 0.000000
1815
root 8.488424 38.310728 4.854309 156.335676 -53.712314 -120.129668
Spine -17.693417 -1.164457 17.833404
Head 24.654829 -43.851365 19.315537
LeftShoulder -6.064004 19.509352 19.379134
LeftArm 22.103814 28.264285 -73.653432
LeftForeArm 18.962790 -0.000000 26.591775
LeftHand -13.811919 -0.000000 -10.720944
LeftHandThumb1 -26.253704 0.000000 33.147579
RightShoulder -41.799377 -47.622618 26.099575
RightArm 48.140549 -16.410503 51.981997
RightForeArm 8.212994 -0.000000 11.048395
RightHand -1.998751 -0.000000 23.602401
RightHandThumb1 -24.326973 -0.000000 -32.862282
LeftUpLeg -42.016745 35.281372 1.847741
LeftLeg 12.840844 -0.000000 -0.000000
LeftFoot -10.187701 18.765906 -2.861656
LeftToeBase 4.811017 -0.000000 -0.000000
RightUpLeg -101.743674 -23.142035 23.403637
RightLeg 131.518579 -0.000000 -0.000000
RightFoot 32.888954 -5.070683 24.851761
RightToeBase -8.802459 -0.000000 0.000000
1816
root 8.513085 38.327133 4.872980 156.921200 -53.608875 -120.134148
Spine -18.228101 -0.943829 17.927376
Head 24.836161 -43.841263 19.234343
LeftShoulder -6.059049 19.589468 19.446042
LeftArm 22.187316 28.312406 -73.717648
LeftForeArm 18.717016 -0.000000 26.804910
LeftHand -13.701565 -0.000000 -10.660062
LeftHandThumb1 -26.253704 0.000000 33.147579
RightShoulder -41.936119 -47.722777 26.208850
RightArm 48.154134 -16.419325 52.042660
RightForeArm 8.328185 -0.000000 11.108464
RightHand -1.691602 -0.000000 22.860862
RightHandThumb1 -24.326973 -0.000000 -32.862282
LeftUpLeg -42.625259 35.217839 1.576347
LeftLeg 12.681263 -0.000000 -0.000000
LeftFoot -9.962739 18.976700 -2.735254
LeftToeBase 4.666042 -0.000000 -0.000000
RightUpLeg -103.015048 -22.690546 25.005547
RightLeg 131.088523 -0.000000 -0.000000
RightFoot 31.583088 -5.871464 24.744138
RightToeBase -9.145676 -0.000000 0.000000
1817
root 8.536758 38.339263 4.888027 157.454194 -53.520256 -120.230926
Spine -18.603233 -0.749735 17.921636
Head 24.944198 -43.854209 19.243542
LeftShoulder -6.032297 19.594170 19.560169
LeftArm 22.191425 28.360219 -73.821545
LeftForeArm 18.607035 -0.000000 27.071022
LeftHand -13.706295 -0.000000 -10.529575
LeftHandThumb1 -26.253704 0.000000 33.147579
RightShoulder -42.062345 -47.786195 26.340775
RightArm 48.226103 -16.477132 52.051073
RightForeArm 8.463480 -0.000000 11.123188
RightHand -1.449489 -0.000000 22.113247
RightHandThumb1 -24.326973 -0.000000 -32.862282
LeftUpLeg -43.117189 35.211511 1.297402
LeftLeg 12.562609 -0.000000 -0.000000
LeftFoot -9.753069 19.137247 -2.620128
LeftToeBase 4.494432 -0.000000 -0.000000
RightUpLeg -104.103277 -22.273447 26.413970
RightLeg 130.653023 -0.000000 -0.000000
RightFoot 29.953870 -6.419064 24.754478
RightToeBase -9.982170 -0.000000 0.000000
